<?xml version="1.0" encoding="UTF-8"?>
<svg width="61px" height="64px" viewBox="0 0 61 64" version="1.1" xmlns="http://www.w3.org/2000/svg" xmlns:xlink="http://www.w3.org/1999/xlink">
    <!-- Generator: Sketch 63.1 (92452) - https://sketch.com -->
    <title>eBlitzLogo</title>
    <desc>Created with Sketch.</desc>
    <g id="Marketing-Site" stroke="none" stroke-width="1" fill="none" fill-rule="evenodd">
        <g id="Home" transform="translate(-80.000000, -30.000000)" fill="#0B0A13">
            <g id="eBlitzLogo" transform="translate(80.000000, 30.000000)">
                <path d="M42.6896003,15.5029511 L50.8581987,29.4919111 L49.4296646,28.4572444 L44.0250907,24.0142222 C41.4270406,21.8780444 39.0189253,17.9875556 42.6896003,15.5029511 Z M36.4665225,27.3153778 L16.6284203,27.3153778 L22.9919904,32.4168889 L42.8300401,32.4168889 L36.4665225,27.3153778 Z M35.6899932,35.5605333 L15.851926,35.5605333 L22.2154611,40.6618667 L42.0535108,40.6618667 L35.6899932,35.5605333 Z M2.39386885,0 L34.1124495,25.4284444 L13.5262382,19.3203556 C5.20011279,16.8497778 -4.18872098,9.45134222 2.39386885,0 Z M60.1781242,64 L39.9679001,43.8055111 L30.0080375,43.8055111 L60.1781242,64 Z M41.1092582,12.32304 C35.9874879,13.0074667 32.1420939,18.0766222 36.8776983,21.8730667 L53.5244575,35.2184889 C53.5832219,35.2072889 53.6416365,35.1962667 53.6997013,35.1848889 C53.7483218,34.4567111 53.7731567,33.7219556 53.7731567,32.9813333 C53.7731567,20.4846222 46.735073,9.65861333 36.4684464,4.37573333 L41.1092582,12.32304 Z" id="Shape"></path>
            </g>
        </g>
    </g>
</svg>