<?xml version="1.0" encoding="UTF-8"?>
<svg width="661px" height="40px" viewBox="0 0 661 40" version="1.1" xmlns="http://www.w3.org/2000/svg" xmlns:xlink="http://www.w3.org/1999/xlink">
    <!-- Generator: Sketch 63.1 (92452) - https://sketch.com -->
    <title>GameLogos</title>
    <desc>Created with Sketch.</desc>
    <g id="Marketing-Site" stroke="none" stroke-width="1" fill="none" fill-rule="evenodd">
        <g id="Home" transform="translate(-80.000000, -250.000000)">
            <g id="Group" transform="translate(80.000000, 250.000000)">
                <g id="GameLogos">
                    <g id="Group-3">
                        <rect id="Rectangle" fill-opacity="0.1" fill="#0B0A13" x="0" y="0" width="106" height="40" rx="8"></rect>
                        <g id="Fortnite-Logo.wine" transform="translate(13.250000, 8.888889)" fill="#000000" fill-rule="nonzero">
                            <path d="M0,11.088745 C0,17.188812 0.0150703187,22.1774901 0.0351640769,22.1774901 C0.0653047143,22.1774901 4.15940795,21.4181248 4.66175191,21.3175466 L4.92297077,21.2672575 L4.92297077,13.1254533 L8.03750329,13.1254533 L8.03750329,12.3811747 C8.03750329,11.9738331 8.05257361,10.9127332 8.07266737,10.0175874 L8.10280801,8.39827855 L4.92297077,8.39827855 L4.92297077,4.82775294 L6.75652621,4.82775294 C7.76623756,4.82775294 8.59008165,4.81769512 8.59008165,4.80260839 C8.59008165,4.74729039 8.99195681,0.452601838 9.01707401,0.236358738 L9.04721464,1.33997062e-16 L0,1.33997062e-16 L0,11.088745 Z M75.1406089,0.648729301 L71.1319041,0.980637316 L71.1319041,21.015812 L71.2976777,21.0409566 C71.4433574,21.0661011 79.2045715,21.629339 79.3602981,21.6243435 C79.4055091,21.6243435 79.4205794,21.0912457 79.4205794,19.1349999 L79.4205794,16.6456898 L76.0046405,16.6456898 L76.0046405,13.0248751 L78.9182355,13.0248751 L78.9182355,8.70001311 L75.9041717,8.70001311 L75.9041717,5.8335348 L76.0197108,5.81341917 C76.0799921,5.79833244 76.5923829,5.7782168 77.1600316,5.75810116 C77.7276803,5.74301444 78.4661259,5.71786989 78.8077198,5.69775425 L79.4205794,5.6675808 L79.4205794,0.301734559 L79.2849466,0.306763468 C79.2045715,0.311792377 77.3408754,0.462659657 75.1406089,0.648729301 Z M49.4055281,1.34271879 C49.4557625,1.84560972 50.0284346,9.42417605 50.0183877,9.43423387 C50.0133642,9.44429169 49.2749186,7.62885543 48.3757229,5.4010486 C47.4815507,3.17324178 46.7280348,1.32763206 46.707941,1.29242969 C46.6778004,1.23711169 45.2913311,1.49358607 43.0157129,1.97636136 L42.799705,2.02162154 L42.799705,19.3110118 L47.2705662,19.3110118 L47.245449,18.9489303 C47.1952147,18.2750564 47.0093474,12.7030249 47.0294411,12.4817529 C47.0445115,12.2856255 47.1952147,12.6275913 48.6218715,16.0774231 C49.4859031,18.1744783 50.2193253,19.909452 50.239419,19.9396254 C50.2695597,19.9697989 50.9678178,19.9245387 52.1533495,19.8239605 C53.1831546,19.7334401 54.0270925,19.6529776 54.0270925,19.6479487 C54.0321159,19.6429198 54.0069987,16.0170762 53.9718346,11.591636 C53.9366705,7.16619577 53.9065299,2.98717213 53.9065299,2.29821156 L53.9015065,1.05607096 L49.3753874,1.05607096 L49.4055281,1.34271879 Z M14.0405136,1.36283442 C11.0364967,1.5639908 9.3837851,3.62081471 8.86134738,7.79480944 C8.75585515,8.65978184 8.71064419,11.5966649 8.78599579,12.6225624 C9.03716777,15.9517003 9.93636345,18.1141313 11.5338172,19.2154625 C12.3928254,19.8038449 13.6838494,20.1206662 14.959803,20.0452325 C16.411577,19.96477 17.4011946,19.5523994 18.2903434,18.6622825 C19.0187422,17.9330906 19.4155939,17.2491589 19.7973753,16.082452 C20.3298599,14.4530854 20.570985,12.0190933 20.4504224,9.48452297 C20.3147896,6.64821811 19.8877972,4.88307094 19.0086953,3.53029434 C18.1697809,2.24289355 16.8435928,1.47347043 15.2963735,1.37792115 C15.0502249,1.36283442 14.7890061,1.3477477 14.7186779,1.33768988 C14.6483498,1.33266097 14.3469434,1.34271879 14.0405136,1.36283442 Z M14.7488185,5.31555714 C15.1155296,5.71284098 15.2712563,7.29694741 15.2712563,10.6864323 C15.2712563,14.860427 15.0100374,16.5954007 14.4373653,16.2232614 C14.1912168,16.0573074 14.0053495,15.247653 13.9149276,13.9049343 C13.8496229,12.9242969 13.8496229,8.43348092 13.9149276,7.49307488 C14.0103729,6.16544282 14.1811699,5.43122206 14.4373653,5.25521023 C14.5780216,5.15463205 14.6031388,5.15966096 14.7488185,5.31555714 L14.7488185,5.31555714 Z M21.0984461,10.5053916 L21.0984461,19.6630354 L25.7049402,19.6630354 L25.7350809,19.0243639 C25.7551746,18.6673114 25.7953621,17.5106622 25.8255028,16.4445335 C25.8556434,15.3784047 25.8958309,14.4430275 25.9159247,14.3675939 C25.9410419,14.2619868 26.1570498,14.9408896 26.8201438,17.2340722 C27.302394,18.8885834 27.7092926,20.2614756 27.7293864,20.2815913 C27.7695739,20.3268514 32.4815602,19.9547122 32.5317946,19.9044231 C32.5468649,19.8843074 32.0244272,18.2398541 31.37138,16.2383482 L30.1858483,12.6074756 L30.4370203,12.3862036 C31.2709113,11.6570118 31.9591225,10.2489172 32.1550366,8.8559093 C32.2404351,8.24741127 32.1851773,6.73873848 32.0545678,6.18052955 C31.5522239,3.992954 30.2210124,2.29318265 28.5230898,1.65954007 C27.7846442,1.38797897 27.8449255,1.39300788 24.353635,1.37289224 L21.0984461,1.35277661 L21.0984461,10.5053916 Z M26.2776123,5.68769643 C26.6342765,5.86370826 26.925636,6.3163101 27.0813627,6.93989485 C27.1868549,7.35729433 27.1717846,8.67989748 27.0562455,9.10232586 C26.8402376,9.89689353 26.4584562,10.3595532 25.885784,10.535565 L25.7702449,10.5657385 L25.7702449,5.53180025 L25.9360184,5.56700261 C26.0214169,5.58208934 26.1771435,5.63740734 26.2776123,5.68769643 Z M32.3007164,3.74653744 L32.3007164,6.08498027 L34.8626705,6.08498027 L34.8626705,19.5624572 L39.6851725,19.5624572 L39.6851725,6.88960576 L42.2973611,6.88960576 L42.2973611,2.2127201 L42.1868454,2.19260446 C42.0813532,2.16745991 32.5016539,1.4030657 32.3660211,1.4080699 C32.3157867,1.4080699 32.3007164,1.91098554 32.3007164,3.74653744 Z M54.9564288,11.0384559 L54.9564288,20.1659263 L59.9296339,20.1659263 L59.9296339,1.91098554 L54.9564288,1.91098554 L54.9564288,11.0384559 Z M65.6061206,2.54462811 C62.8834164,2.69046648 60.6178452,2.81116031 60.5726342,2.81116031 C60.4872357,2.81618922 60.4822123,2.96202759 60.4822123,5.17977659 L60.4822123,7.54336397 L63.0441665,7.54336397 L63.0441665,20.7693955 L67.9169028,20.7693955 L67.9169028,6.99018395 L70.6295602,6.99018395 L70.6295602,4.62659657 C70.6295602,3.32410906 70.6144899,2.2680381 70.5943961,2.2680381 C70.5692789,2.27306701 68.3288249,2.39376083 65.6061206,2.54462811 Z" id="Shape"></path>
                        </g>
                    </g>
                    <g id="Group-2" transform="translate(111.000000, 0.000000)">
                        <rect id="Rectangle-Copy-2" fill-opacity="0.1" fill="#0B0A13" x="0" y="0" width="106" height="40" rx="8"></rect>
                        <g id="counter-strike-global-offensive-2" transform="translate(15.900000, 4.444444)" fill="#231F20" fill-rule="nonzero">
                            <path d="M37.0197297,0.0760043777 C37.510719,-0.0957937865 38.0470386,0.0476250607 38.4970045,0.271723805 C38.8114099,0.476141874 39.1258153,0.682734604 39.4779063,0.816476212 C39.5048245,0.86758073 39.5608145,0.968702434 39.5877328,1.01871962 C39.5737353,1.05242686 39.546817,1.12201599 39.5328195,1.15572322 C39.7836978,1.7320082 39.9441307,2.41485154 39.7007896,3.0203857 C39.534973,3.22480377 39.2464091,3.25644508 39.0127585,3.33560271 C39.0116818,3.62809452 39.0579812,3.91743308 39.082746,4.20775023 C39.5823492,4.28929999 40.005289,3.93809235 40.4995085,3.97288692 C40.5662658,3.69344307 40.6190256,3.40943243 40.7075329,3.13553396 C40.8098223,3.3171181 40.8140216,3.52599422 40.815206,3.73041229 C40.9444137,3.76738152 41.0757749,3.80108875 41.2079974,3.83359992 C41.2092895,3.88372584 41.2102585,3.98376022 41.2102585,4.0337774 C43.376641,4.04682537 45.5418391,4.0238827 47.7083293,4.04573804 C47.7029456,4.12054635 47.6923937,4.27070664 47.6880867,4.34584116 C47.7440767,4.34584116 47.8582102,4.34692849 47.9150616,4.34692849 C47.9129081,3.94907439 47.9150616,3.54991549 47.9139849,3.15206138 C47.9688982,3.14977799 48.0765712,3.146516 48.1304078,3.14542867 C48.1316999,3.45857975 48.1326689,3.77173084 48.1358991,4.08499065 C48.1831676,4.14370648 48.2779199,4.26102941 48.3255114,4.31974523 C48.3610435,4.27723063 48.4320001,4.19372367 48.4674245,4.15120906 C48.6321644,4.30680601 48.5384888,4.51992272 48.531167,4.71107536 C49.1373665,4.70444264 49.749811,4.74576119 50.3540723,4.695744 C50.399295,4.66203677 50.4897404,4.59570963 50.5349631,4.56211113 C50.6179791,4.5946223 50.7018564,4.62735094 50.7847647,4.66105817 C51.0571776,4.65431672 51.3306672,4.65344686 51.6041569,4.65235953 C51.5985579,4.79479978 51.594251,4.9371313 51.5888673,5.07968028 C51.2367763,5.0741349 50.8836086,5.06663232 50.5369012,5.12741407 C50.3129412,4.93289071 50.0125333,4.99465106 49.7422739,4.98725722 C49.3266558,5.00682916 48.8979015,4.93289071 48.4954195,5.06652358 C48.2561699,5.13393805 47.993663,5.11773683 47.7826237,4.9806245 C47.731802,5.10784213 47.809542,5.39272263 47.5972107,5.3817406 C46.7616675,5.39272263 45.9272011,5.37423802 45.0927347,5.38728598 C44.9786012,5.44817647 44.863391,5.50580497 44.7494729,5.5622374 C44.628879,5.92540567 44.2832484,6.16777156 43.9890855,6.38958692 C43.9524767,6.94738728 44.1710531,7.46821843 44.2561148,8.00960011 C44.091375,8.0573339 43.9255584,8.10648123 43.7629721,8.16084774 C43.5293215,8.71756077 43.6725267,9.47749582 43.1320078,9.86589015 C42.7174664,10.1093434 42.4431154,10.6388732 41.8840767,10.5552575 C42.1683337,10.7944701 41.8065521,10.7194443 41.8442377,10.5280742 C40.8331874,10.4378258 39.9814933,9.8387069 39.1028809,9.38213696 C39.0619651,9.63211417 38.997469,9.87795951 38.930604,10.1226088 C39.2643905,10.1867613 39.5400336,10.4346726 39.5992538,10.7804435 C39.7058502,11.5340721 39.4926575,12.282264 39.4958877,13.0378497 C39.5195758,13.4814804 39.3311479,13.8880331 39.0964205,14.2501141 C38.8907649,14.4849774 38.5666689,14.2434813 38.3200976,14.2087955 C38.2639999,14.3186159 38.2091943,14.4285449 38.1553578,14.5393439 C38.2253453,14.834989 38.2554937,15.1427034 38.3534762,15.4319332 C38.9036857,16.0462747 39.4043655,16.7118295 39.7887585,17.4457774 C40.1844436,18.2769614 40.5370469,19.1283676 40.8451391,19.9965452 C40.8751799,20.1651901 41.0323826,20.2257544 41.1704195,20.2868623 C41.1887239,20.4608352 41.2070284,20.6345905 41.224256,20.8108467 C41.2780926,20.8902218 41.3330059,20.9694882 41.3889959,21.0499506 C41.4223745,22.1221669 41.2920901,23.1898164 41.1271349,24.2477886 C41.0250608,24.7252353 41.3015653,25.1915912 41.1895853,25.6721911 C41.2025061,25.9182539 41.0347514,26.1040787 40.9559347,26.3215447 C40.9408605,26.8293279 40.9160957,27.3435263 40.9712243,27.8504396 C41.0097713,28.2223065 41.3211618,28.4614104 41.5322011,28.7387884 C41.7626215,28.985721 41.9553563,29.317248 42.3042171,29.405213 C42.63262,29.5041601 42.9459487,29.6476876 43.2353739,29.8359045 C43.3236659,30.0565238 43.3075149,30.2905172 43.2655224,30.5197264 C42.6345581,30.6371581 41.9906731,30.578551 41.3532484,30.5884457 C40.8620438,30.6144329 40.4240297,30.348037 39.9468226,30.2924744 C39.484905,30.2807313 38.9217748,30.5122238 38.5666689,30.0946891 C38.7171959,29.5153596 38.7292553,28.8931892 39.0046831,28.3526774 C39.092975,27.7406193 38.9252203,27.119645 38.9605371,26.5020415 C38.9079926,26.457461 38.8022577,26.3682999 38.7494978,26.3235019 C38.7873988,25.9202111 38.5902493,25.5612835 38.5244611,25.17539 C38.4816072,24.6118268 38.4307855,24.0488072 38.3661817,23.4877448 C38.3155753,23.214825 38.4555503,22.9648478 38.6461317,22.7832636 C38.6633594,22.4679379 38.7055672,22.1557654 38.7355003,21.8427231 C38.6892009,21.6392836 38.528768,21.4882534 38.4254019,21.3142806 C38.0797712,21.4612876 37.6135468,21.3915898 37.4078912,21.0499506 C36.9202398,20.3171989 36.4334498,19.5843383 35.940307,18.8557184 C35.7464955,18.8427792 35.5419166,18.8633297 35.3610258,18.7850419 C35.1523554,18.568772 35.0433902,18.2806295 34.9100909,18.0174956 C34.7194019,18.2338743 34.7332917,18.5654012 34.5073936,18.7623167 C34.0293251,19.2256281 33.9022709,19.9062968 33.6524693,20.4998703 C33.4610266,20.8846765 33.5686996,21.3489664 33.3552916,21.7242041 C33.2411581,21.9263387 32.9547477,21.96657 32.8793765,22.1973014 C32.7803173,22.4460826 32.6640304,22.7038885 32.4325332,22.8552449 C32.1816549,23.0213889 32.1150053,23.3369322 32.003133,23.5976739 C31.9008435,23.8380826 32.0526626,24.0902345 32.0171305,24.3371672 C31.8577743,25.1212409 31.3635548,25.7767923 31.1557458,26.5445561 C31.0609935,26.8903271 30.9252177,27.2795913 30.5268273,27.353421 C30.0735236,28.1710933 29.8238297,29.1715458 30.0800917,30.0921882 C30.2372944,30.381418 30.2286805,30.7065297 30.1802276,31.0251175 C29.4600024,31.0817674 28.7212573,31.1795184 28.0139528,30.9762964 C27.8481363,30.6445519 27.8718243,30.2542004 27.9062797,29.8957076 C28.1247484,28.9527749 28.4144967,28.0264784 28.5920496,27.0739772 C28.370243,26.8749957 28.4220338,26.570652 28.4262331,26.3041474 C28.4188036,25.8072375 28.7535592,25.4092747 28.9861331,25.0015259 C29.073456,24.5829038 29.0325402,24.1330753 29.246702,23.7489216 C29.4987647,23.2683216 29.7118497,22.7486865 30.1006572,22.3604009 C30.174844,22.0178919 30.4248609,21.7592161 30.5258582,21.4294289 C30.6335313,21.1380244 30.4451034,20.8422706 30.4830043,20.5444509 C30.5754955,19.640662 30.7381896,18.745898 30.8792413,17.8488507 C30.6123197,17.6237733 30.6983505,17.2661504 30.6132888,16.9626766 C30.6552813,16.8430703 30.7080411,16.7290093 30.7715682,16.6179929 C30.7048109,16.5560151 30.639238,16.49295 30.572373,16.4310809 C30.6369769,16.112167 30.6186724,15.5413186 31.1032013,15.6449412 C31.1333498,14.5891436 30.7704915,13.5670533 30.8921621,12.5100596 C30.9567659,12.586064 31.0201854,12.6633732 31.0848969,12.7405736 L31.0504415,12.382842 C31.2528669,12.274109 31.4682131,12.1903846 31.6943266,12.1479787 C31.3260846,12.0991576 30.9675332,12.0045598 30.606613,11.9196393 C30.5193978,11.6879293 30.5680661,11.4412141 30.6001527,11.2041761 C30.7401277,10.4039011 30.7918108,9.59275282 30.8208825,8.78160452 C31.2289635,8.63829441 31.679037,8.75996665 32.0774274,8.56848781 C31.9538187,7.55400878 31.9225935,6.49505794 32.2798528,5.52178872 C32.5673399,4.69313441 33.1165803,3.89394675 33.9735504,3.602651 C34.3784012,3.50490002 34.8876949,3.39497094 35.17389,3.79184645 C35.2524914,3.71899532 35.3310927,3.64396954 35.4096941,3.57111842 C34.7562261,2.26045066 35.536856,0.345662256 37.0197297,0.0760043777 M42.2493038,5.76056642 C42.0770269,5.86712478 41.9079801,5.98901449 42.0890863,6.18255925 C42.0007943,6.2357297 41.9122871,6.28694295 41.8229184,6.33576407 C41.6829434,6.44449709 41.368538,6.50636617 41.4051468,6.72622433 C41.5624037,6.98122044 41.697879,7.24927277 41.8101053,7.52747792 C42.1534748,7.24270615 42.4269644,6.85974847 42.6121621,6.45439179 C42.6509244,6.41416058 42.7296335,6.33369815 42.7682881,6.29444553 C42.7510604,6.10851207 42.7101446,5.9268192 42.6380037,5.75512977 C42.508796,5.75741316 42.3785115,5.75947909 42.2493038,5.76056642 L42.2493038,5.76056642 Z" id="Shape"></path>
                            <path d="M45.4085398,15.494346 C45.9015749,14.8659779 46.6983557,14.5179235 47.4885685,14.5309714 C49.8929085,14.5332548 52.2983253,14.5298841 54.7026653,14.5320588 C55.8754405,14.5570674 57.018821,15.4824941 57.1544891,16.6851899 C53.826314,16.6739904 50.4990003,16.6949759 47.1721173,16.6739904 C47.1688871,18.9226979 47.1645802,21.172384 47.1721173,23.4221788 C49.7261229,23.4179383 52.2799132,23.4134802 54.8341341,23.4243535 C54.8243359,22.6186419 54.837149,21.8129302 54.826597,21.0073273 C53.5636994,21.0146124 52.3005864,21.0171133 51.0375811,21.0073273 C50.024485,20.9680747 49.2707734,20.084184 49.0426142,19.1425561 C51.7581294,19.1327701 54.4725679,19.1316828 57.1878678,19.1436434 C57.1762391,20.5212907 57.1945435,21.9001341 57.1781772,23.2777814 C57.1458753,24.4379627 56.157544,25.4590744 55.0247155,25.5754187 C52.4050293,25.5754187 49.7842664,25.5743314 47.1645802,25.5743314 C46.3817969,25.5686773 45.6894589,25.0695928 45.2479993,24.4466613 C44.9465146,24.0061839 44.8785729,23.4593655 44.8356113,22.9406003 C44.8313044,21.0921391 44.8377648,19.2425905 44.8333502,17.3941292 C44.8432561,16.7241164 44.9606198,16.0163732 45.4085398,15.494346 L45.4085398,15.494346 Z M61.2934425,14.6069758 C61.5639173,14.5330374 61.8458055,14.5277095 62.1248941,14.5309714 C64.3472666,14.5377129 66.5707158,14.5234689 68.7930883,14.5364081 C70.0528634,14.5907746 71.1596351,15.6891955 71.2081956,16.9655037 C71.2104568,19.0282777 71.2104568,21.0919216 71.2081956,23.1558917 C71.1855843,24.4203479 70.0765515,25.5990138 68.8051477,25.5773759 C66.3609687,25.5665026 63.9167896,25.5849872 61.4723952,25.5686773 C60.2535359,25.4316737 59.3178568,24.2563785 59.3092429,23.0395474 C59.2920152,21.1583575 59.3113964,19.2751016 59.2995523,17.3941292 C59.2898618,16.8395908 59.388921,16.2698298 59.6796383,15.7914046 C60.0208543,15.1900022 60.6324375,14.7690967 61.2934425,14.6069758 M61.6768664,16.6144047 C61.6811733,18.9347673 61.6671758,21.2561084 61.6833268,23.576471 C64.0704391,23.5831037 66.4588435,23.5753837 68.8458481,23.5795155 C68.8531699,21.2571958 68.8469249,18.9345498 68.848863,16.6108166 C66.4586281,16.6099467 64.0672089,16.6057061 61.6768664,16.6144047 L61.6768664,16.6144047 Z M0.00376855801,17.1667685 C0.0544825815,15.9087275 1.09772711,14.7266909 2.36719279,14.677761 C4.7391232,14.6754776 7.11223802,14.6754776 9.48438377,14.6788483 C10.7656935,14.6659091 11.8329491,15.834789 11.9296396,17.0884807 C11.7584393,17.1027247 11.5872391,17.1133806 11.4160389,17.1156639 C8.59177389,17.1125107 5.76750885,17.1167513 2.94421286,17.1133806 C2.94302846,19.140164 2.9324765,21.1668386 2.94959652,23.1937308 C5.9473229,23.1892727 8.94386488,23.1870981 11.9414836,23.1949268 C11.8564219,24.4940689 10.7731229,25.6469651 9.46726375,25.6979609 C7.31810896,25.7285148 5.16895416,25.6990482 3.0196917,25.7122049 C2.48455646,25.7306895 1.93327026,25.6631663 1.45100251,25.4163423 C0.619766283,24.9869557 0.0317635604,24.1115462 0.00290717332,23.1612196 C0.00053836543,21.1627068 -0.00269182715,19.1651726 0.00376855801,17.1667685 L0.00376855801,17.1667685 Z M14.212309,16.1816473 C14.6074692,15.3105872 15.5119231,14.6637345 16.4746282,14.6755864 C18.8434361,14.6778697 21.2133207,14.6755864 23.583313,14.6766737 C24.8203691,14.684285 25.9100207,15.7780304 25.9973436,17.0123676 C22.872563,17.0569481 19.7457365,17.0187828 16.6200945,17.0308522 C16.6059894,17.665853 16.6125574,18.3008538 16.6114807,18.9368332 C18.9350659,18.9443358 21.2597278,18.9390079 23.583313,18.9390079 C24.2723131,18.9661911 24.9959839,19.1892026 25.4653309,19.7273222 C25.9928213,20.2036816 26.2158123,20.9289308 26.23304,21.6269968 C26.2447763,22.3239754 26.2447763,23.0243247 26.1327963,23.7145619 C25.8765344,24.8324461 24.8181079,25.6653409 23.6887249,25.7012228 C21.4298513,25.7228607 19.1695779,25.7033975 16.9107042,25.7120961 C16.3778301,25.7230782 15.8265439,25.645769 15.3537514,25.3837224 C14.6043467,24.9889129 14.0659813,24.1949444 13.9917945,23.342695 C17.1724575,23.3581351 20.3541971,23.352481 23.5348601,23.3449784 C23.5423972,22.6684416 23.5380903,21.992231 23.5380903,21.3160203 C21.1843566,21.2997104 18.8295462,21.3137369 16.4746282,21.3092789 C15.1212852,21.3202609 13.9239605,20.0642859 13.960354,18.7019699 C14.0077301,17.862551 13.8161797,16.9612631 14.212309,16.1816473 L14.212309,16.1816473 Z M71.9434951,14.9018598 C72.2428263,14.8942484 72.5453877,14.8822878 72.8436421,14.9279557 C72.7047439,14.9638376 72.5634768,14.9823222 72.4215636,14.9844968 C72.4032592,15.311892 72.4011058,15.6391783 72.4054127,15.9662472 C72.3741875,15.9662472 72.3129215,15.9662472 72.2826654,15.9673346 C72.2848188,15.6313496 72.288049,15.2953645 72.2837421,14.9604669 C72.1997571,14.9672083 72.0328638,14.9823222 71.9499555,14.9887374 L71.9434951,14.9018598 L71.9434951,14.9018598 Z M73.0115045,14.8896817 C73.0751393,14.8930524 73.2042393,14.8995764 73.2690585,14.9028384 C73.3605806,15.1973961 73.4682537,15.4866259 73.6017683,15.7660698 C73.7266691,15.4844513 73.8085007,15.1842394 73.9463222,14.9104497 C74.0066191,14.901751 74.127213,14.8832664 74.1872946,14.8745678 C74.1539159,15.2747053 74.2906607,15.7172486 74.0766066,16.0815042 C74.0378443,15.7270346 74.0539953,15.3702816 74.0312763,15.0147246 C73.8675055,15.3464691 73.7901962,15.7193146 73.5759268,16.0260504 C73.412156,15.7108334 73.3422762,15.351797 73.1463112,15.0541947 C73.1334981,15.3716951 73.1398508,15.6902829 73.1355439,16.0086531 L73.0203337,15.9954964 C73.020226,15.627109 73.0148423,15.2583953 73.0115045,14.8896817 L73.0115045,14.8896817 Z" id="Shape"></path>
                        </g>
                    </g>
                    <g id="Group-2-Copy" transform="translate(222.000000, 0.000000)">
                        <rect id="Rectangle-Copy-2" fill-opacity="0.1" fill="#0B0A13" x="0" y="0" width="106" height="40" rx="8"></rect>
                        <g id="call-of-duty" transform="translate(8.833333, 12.444444)" fill="#000000" fill-rule="nonzero">
                            <path d="M2.24158315,0.651441891 C3.78876282,-0.0882382693 5.59879208,-0.111287793 7.25709515,0.221882591 C8.51364439,0.517335573 9.84712522,1.21510751 10.3215367,2.46816342 C10.7959481,3.91190175 10.6933727,5.45202899 10.6955097,6.94605719 C9.18893276,6.93977096 7.68235587,6.94605719 6.17791596,6.94396178 C6.14607483,5.70347834 6.24629959,4.45670866 6.1159433,3.22041604 C6.14372415,2.36548827 4.59868146,2.3717745 4.62005135,3.22670228 C4.45764022,5.17124389 4.58158555,7.12835797 4.54333346,9.07918581 C4.57966226,10.3236505 4.45122925,11.5852976 4.65231987,12.8194948 C4.77626521,13.3140119 5.4088138,13.3517293 5.80843065,13.1840964 C6.1159433,12.968269 6.12256796,12.5722363 6.15462279,12.2390659 C6.20377352,11.3128942 6.16530773,10.3867224 6.17812966,9.46055065 C7.68662984,9.45635983 9.19320674,9.45845524 10.7019206,9.45845524 C10.6570439,10.8644762 10.7852632,12.3605998 10.1826324,13.6744226 C9.18252179,15.2983663 7.09682102,15.908131 5.25901091,15.8517644 C3.63917362,15.8370965 1.78426761,15.4703996 0.777746023,14.1018865 C0.0575808987,12.9955094 0.0832247607,11.6167288 0.0255260712,10.35131 C0.0362110137,8.106915 -0.0514055148,5.85853877 0.106731634,3.61854418 C0.172978278,2.32986628 1.07478742,1.19205798 2.24158315,0.651441891 Z M13.1274026,0.297317395 C15.3156788,0.267981638 17.506092,0.270077049 19.6943682,0.297317395 C20.5256568,5.38078501 21.414644,10.455871 22.2608914,15.5372432 C20.852616,15.5328428 19.4443406,15.5372432 18.0360651,15.5328428 C17.9121198,14.5815261 17.8202293,13.6258091 17.6685031,12.6767973 C17.1660971,12.685179 16.6619815,12.685179 16.1595755,12.682874 C16.2493291,11.8321371 16.3476305,10.9816097 16.441658,10.1306632 C16.7515214,10.1306632 17.0592477,10.1285677 17.369111,10.1285677 C17.0870286,7.95143549 16.8754667,5.76382618 16.5356855,3.59507557 C16.0954659,7.58054771 15.5654927,11.5557523 15.0825333,15.5370336 C13.6701976,15.5351478 12.2555113,15.5351478 10.8429619,15.5351478 C11.5951818,10.4560805 12.3901415,5.38078501 13.1274026,0.297317395 Z M23.0344812,0.282649516 C24.5325102,0.278458694 26.0326761,0.280554105 27.532842,0.280554105 C27.534979,4.34565187 27.532842,8.40865422 27.534979,12.4735424 C28.4517471,12.4779428 29.3685152,12.4758474 30.2852832,12.4758474 C30.2895572,13.4963127 30.2874202,14.514473 30.2874202,15.5351478 C27.8704862,15.5374527 25.4535522,15.5330524 23.0366182,15.5351478 C23.0323443,10.4516802 23.0366182,5.36611713 23.0344812,0.282649516 L23.0344812,0.282649516 Z M31.3559145,0.282649516 C32.8582174,0.278458694 34.3626573,0.280554105 35.8670972,0.280554105 C35.8713712,4.34565187 35.8670972,8.40865422 35.8692342,12.4735424 C36.7774543,12.4779428 37.6856744,12.4758474 38.5938945,12.4758474 C38.5960315,13.4963127 38.5960315,14.514473 38.5960315,15.5351478 L31.3580515,15.5351478 C31.3537775,10.4516802 31.3580515,5.36611713 31.3559145,0.282649516 Z M44.1906674,0.282649516 C46.1780667,0.267981638 48.167603,0.282649516 50.1526516,0.368561376 C51.1978527,0.441900769 52.2917771,0.51314475 53.2237178,1.03071132 C54.0635543,1.52522837 54.5785685,2.46187718 54.5869028,3.41948011 C54.7238837,6.07227071 54.6448151,8.73344296 54.6533631,11.388329 C54.5999384,12.484229 54.7174727,13.7584486 53.9075541,14.6320255 C53.0055313,15.4406447 51.7109436,15.4806671 50.5548328,15.5267661 C48.4349403,15.5498157 46.3129107,15.5267661 44.1906674,15.5351478 C44.1885304,10.4516802 44.1906674,5.36611713 44.1906674,0.282649516 M48.7018501,2.90610436 C48.7039871,6.25457149 48.7039871,9.60115274 48.7018501,12.9494103 C49.1313848,12.8572122 49.7853033,12.9431241 49.9752816,12.4444162 C50.2402681,11.3443253 50.0992269,10.1962495 50.1355557,9.07289958 C50.0992269,7.23731935 50.214838,5.39335748 50.0693091,3.55987266 C50.0075501,2.89981813 49.1999821,2.92705847 48.7018501,2.90610436 Z M55.779556,0.282649516 C57.275448,0.278249153 58.7713399,0.282649516 60.2672319,0.280554105 C60.2693689,3.98524114 60.2672319,7.68992817 60.2672319,11.3946152 C60.2759935,11.8849414 60.2650949,12.3794585 60.3591224,12.8634985 C60.427506,13.4187824 61.4254796,13.3936375 61.4684331,12.8362581 C61.5686579,12.3587139 61.5581866,11.8681781 61.5643839,11.3841381 C61.5601099,7.68364194 61.5665209,3.98314573 61.5601099,0.282649516 C63.0560019,0.276363283 64.5518938,0.282649516 66.0499228,0.280554105 C66.0456488,3.84275318 66.0629584,7.40495225 66.0413748,10.9650559 C65.9943611,11.9457084 66.1054845,13.0248451 65.5116154,13.8776775 C64.8040585,15.0404212 63.4301886,15.6313271 62.100768,15.7696243 C60.4170348,15.9582113 58.5856356,15.7635476 57.1752232,14.7701131 C56.288373,14.1519668 55.8246465,13.0874979 55.8351177,12.035392 C55.7280546,8.11948747 55.8030629,4.20106849 55.779556,0.282649516 Z M67.0177649,0.280554105 L76.8970627,0.280554105 C76.8991997,1.30101937 76.8970627,2.31938922 76.8991997,3.33985448 C76.0059385,3.33985448 75.112891,3.33775907 74.2217668,3.34194989 L74.2217668,15.5351478 C72.7128392,15.5351478 71.2041253,15.5374527 69.6956251,15.5330524 L69.6956251,3.34194989 C68.8066379,3.33985448 67.9176507,3.33775907 67.0286635,3.34194989 C67.0094306,2.32148463 67.0199018,1.30101937 67.0177649,0.280554105 Z M77.707195,0.280554105 C79.0917499,0.297317395 80.4767321,0.244932114 81.8615007,0.307794451 C82.7118084,3.04649691 83.6416121,5.76005444 84.5218377,8.49037526 C84.7250653,9.16530721 85.0582218,9.8251522 85.0368519,10.5440878 C85.0261669,12.2348751 85.0347149,13.9260815 85.0306546,15.6168688 C83.6437491,15.6191738 82.2587668,15.6191738 80.8718613,15.6168688 C80.8718613,13.9952301 80.865664,12.3733818 80.876349,10.7494381 C80.8808367,10.3850461 80.8569024,10.0139488 80.7395817,9.66380554 C79.7225889,6.53954741 78.7199139,3.40900305 77.707195,0.280554105 L77.707195,0.280554105 Z M84.1801332,0.282649516 C85.5561401,0.278249153 86.9325744,0.282649516 88.308795,0.280554105 C87.3383885,3.16803076 86.3812314,6.05969824 85.4108249,8.94696536 C84.7953722,7.01939658 84.1053386,5.11026742 83.5473709,3.16782122 C83.6779409,2.19366455 83.97947,1.24653868 84.1801332,0.282649516 Z" id="Shape"></path>
                            <path d="M38.0831543,3.93914209 C38.87384,3.59759006 40.0577316,3.92866504 40.1880879,4.86321844 C40.2757045,5.99054967 40.2842524,7.1346442 40.17954,8.26197543 C39.9401973,9.55882544 37.7284142,9.6198019 37.380085,8.36255517 C37.209126,7.35466238 37.3052905,6.31743382 37.3010165,5.29906397 C37.2753726,4.74797082 37.5382222,4.15496945 38.0831543,3.93914209 M38.6216754,4.65996355 C38.5276479,5.90673323 38.5661137,7.15978913 38.5981685,8.40865422 L38.8994839,8.3122653 C39.0341141,7.16188455 38.9935114,5.98216803 38.9272647,4.82759645 C38.8524701,4.78568822 38.698607,4.70187178 38.6216754,4.65996355 L38.6216754,4.65996355 Z M40.6560884,3.92866504 C41.3377878,3.92656962 42.0173501,3.92447421 42.6969124,3.92866504 C42.6947754,4.27440789 42.6926385,4.62224615 42.6926385,4.97008441 L41.8656239,4.97637064 C41.8656239,5.30954103 41.8634869,5.64271141 41.8634869,5.9758818 C42.1092406,5.97797721 42.3571313,5.98007262 42.6071589,5.98426344 C42.6071589,6.30276595 42.6071589,6.62126845 42.6092959,6.93977096 L41.8656239,6.94605719 C41.8656239,7.68573735 41.8634869,8.42311256 41.8656239,9.1632118 C41.4617331,9.1632118 41.0599792,9.16530721 40.6584391,9.16740262 C40.6560884,7.41962013 40.6582254,5.67414258 40.6560884,3.92866504 L40.6560884,3.92866504 Z" id="Shape"></path>
                            <path d="M86.6522015,14.1720828 C86.9421908,14.1720828 87.1811061,14.2613473 87.3683063,14.4400859 C87.5557202,14.619034 87.6493203,14.8300419 87.6493203,15.0733191 C87.6493203,15.3212063 87.5542243,15.5334714 87.3638187,15.7099051 C87.173413,15.8863387 86.9447552,15.974765 86.677418,15.974765 C86.4083711,15.974765 86.1792859,15.8867578 85.9897351,15.7105337 C85.8001842,15.5343096 85.7055156,15.3220445 85.7055156,15.0733191 C85.7055156,14.8983523 85.7555211,14.7376343 85.8557459,14.5913746 C85.9561843,14.4449053 86.0816256,14.3384584 86.2322833,14.2718243 C86.3827272,14.2051903 86.5229137,14.1720828 86.6522015,14.1720828 L86.6522015,14.1720828 Z M86.7002837,14.3472592 C86.4620095,14.3472592 86.2686121,14.420389 86.1205188,14.5662296 C85.9726392,14.7120702 85.8984856,14.8813795 85.8984856,15.0735287 C85.8984856,15.2725927 85.9749898,15.4433688 86.1282119,15.5852281 C86.2812203,15.727297 86.465215,15.798541 86.6799823,15.798541 C86.8938949,15.798541 87.0774622,15.727297 87.2306843,15.5852281 C87.3836927,15.4431592 87.4601968,15.2725927 87.4601968,15.0735287 C87.4601968,14.9362792 87.4217311,14.8097164 87.3447995,14.6938402 C87.2678679,14.5779639 87.1689253,14.4914234 87.0477581,14.4337996 C86.9270182,14.3763854 86.8111934,14.3472592 86.7002837,14.3472592 L86.7002837,14.3472592 Z M86.2500203,15.5548446 L86.2500203,14.5982894 L86.7385358,14.5982894 C86.8592757,14.5982894 86.9475333,14.6242725 87.0024539,14.6764483 C87.0573745,14.728624 87.084728,14.7927436 87.084728,14.868807 C87.084728,14.9425655 87.0618622,15.0018656 87.0157032,15.0464979 C86.9695443,15.0913397 86.9000922,15.1213041 86.8069195,15.1374387 C86.8492318,15.1521066 86.8827826,15.1724321 86.9077853,15.1979961 C86.9327881,15.2233506 86.9725361,15.2786694 87.0266019,15.3633241 L87.1469143,15.5550542 L86.8894072,15.5550542 L86.8032866,15.4010415 C86.7517852,15.3092624 86.7062673,15.2468192 86.6669467,15.2132926 C86.6274124,15.1801851 86.575911,15.1634218 86.5126561,15.1634218 L86.4581629,15.1634218 L86.4581629,15.5552637 L86.2500203,15.5552637 L86.2500203,15.5548446 Z M86.4581629,15.0110854 L86.6280535,15.0110854 C86.7135331,15.0110854 86.7742235,15.0006084 86.8101249,14.9800733 C86.8460264,14.9591192 86.8639771,14.9251736 86.8639771,14.8782364 C86.8659426,14.8392255 86.8454813,14.8024161 86.8109797,14.7828951 C86.775292,14.761522 86.7216536,14.7512544 86.6498508,14.7512544 L86.4583766,14.7512544 L86.4583766,15.0110854 L86.4581629,15.0110854 Z" id="Shape"></path>
                        </g>
                    </g>
                    <g id="Group-2-Copy-2" transform="translate(333.000000, 0.000000)">
                        <rect id="Rectangle-Copy-2" fill-opacity="0.1" fill="#0B0A13" x="0" y="0" width="106" height="40" rx="8"></rect>
                        <g id="battlefield" transform="translate(8.833333, 11.555556)" fill="#000000" fill-rule="nonzero">
                            <path d="M81.2517581,0 L81.2517581,17.7777778 L85.8390133,17.7777778 C87.2151899,17.7777778 88.3333333,16.6411658 88.3333333,15.2422587 L88.3333333,2.53551913 C88.3333333,1.13369763 87.2180569,0 85.8390133,0 L81.2517581,0 Z M83.574056,15.5336976 L83.574056,2.24408015 L85.2942767,2.24408015 C85.6899275,2.24408015 86.0110354,2.5704918 86.0110354,2.9726776 L86.0110354,14.8051002 C86.0110354,15.207286 85.6899275,15.5336976 85.2942767,15.5336976 L83.574056,15.5336976 Z M42.4607811,0 L42.4607811,17.7777778 L48.1948502,17.7777778 L48.1948502,15.5336976 L44.7830791,15.5336976 L44.7830791,9.87978142 L48.1948502,9.87978142 L48.1948502,7.63570128 L44.7830791,7.63570128 L44.7830791,2.24408015 L48.1948502,2.24408015 L48.1948502,0 L42.4607811,0 Z M59.4622958,0 L61.7845937,0 L61.7845937,17.7777778 L59.4622958,17.7777778 L59.4622958,0 Z M51.1192254,0 L51.1192254,17.7777778 L53.4415233,17.7777778 L53.4415233,9.87978142 L56.8532944,9.87978142 L56.8532944,7.63570128 L53.4415233,7.63570128 L53.4415233,2.24408015 L56.8532944,2.24408015 L56.8532944,0 L51.1192254,0 Z M65.0816834,0 L65.0816834,17.7777778 L70.8157525,17.7777778 L70.8157525,15.5336976 L67.4039814,15.5336976 L67.4039814,9.87978142 L70.8157525,9.87978142 L70.8157525,7.63570128 L67.4039814,7.63570128 L67.4039814,2.24408015 L70.8157525,2.24408015 L70.8157525,0 L65.0816834,0 Z M34.9491507,0 L34.9491507,17.7777778 L40.7118901,17.7777778 L40.7118901,15.5336976 L37.2714487,15.5336976 L37.2714487,0 L34.9491507,0 Z M73.7401277,0 L73.7401277,17.7777778 L79.502867,17.7777778 L79.502867,15.5336976 L76.0624256,15.5336976 L76.0624256,0 L73.7401277,0 Z M20.1552526,2.24408015 L20.1552526,17.7777778 L22.4775506,17.7777778 L22.4775506,2.24408015 L24.7425078,2.24408015 L24.7425078,0 L17.9189657,0 L17.9189657,2.24408015 L20.1552526,2.24408015 Z M28.5556637,2.24408015 L28.5556637,17.7777778 L30.8779617,17.7777778 L30.8779617,2.24408015 L33.142919,2.24408015 L33.142919,0 L26.3193768,0 L26.3193768,2.24408015 L28.5556637,2.24408015 Z M8.60110354,17.7777778 L10.9549389,17.7777778 L11.5713513,13.3187614 L14.3609759,13.3187614 L14.9802553,17.7777778 L17.3340907,17.7777778 L14.4125825,0 L11.5226117,0 L8.60110354,17.7777778 Z M11.875257,11.132969 L12.9647301,3.26120219 L14.0570702,11.132969 L11.875257,11.132969 L11.875257,11.132969 Z M0,15.5336976 L0,17.7777778 L4.7019366,17.7777778 C6.00070323,17.7777778 7.0529049,16.7081967 7.0529049,15.3879781 L7.0529049,10.5442623 C7.0529049,9.4571949 5.9978362,8.7431694 5.86595261,8.7431694 L5.8401493,8.7431694 C6.08384724,8.7431694 6.96689387,8.10200364 6.96689387,6.84881603 L6.96689387,2.27322404 C6.96689387,1.01712204 5.96629882,0 4.73060695,0 L0,0 L0,15.5336976 Z M2.32229796,15.5336976 L2.32229796,9.87978142 L4.01384832,9.87978142 C4.40949908,9.87978142 4.73060695,10.2061931 4.73060695,10.6083789 L4.73060695,14.8051002 C4.73060695,15.207286 4.40949908,15.5336976 4.01384832,15.5336976 L2.32229796,15.5336976 Z M2.32229796,7.69398907 L2.32229796,2.24408015 L3.92783728,2.24408015 C4.32348805,2.24408015 4.64459591,2.5704918 4.64459591,2.9726776 L4.64459591,6.96539162 C4.64459591,7.36757741 4.32348805,7.69398907 3.92783728,7.69398907 L2.32229796,7.69398907 Z" id="Shape"></path>
                        </g>
                    </g>
                    <g id="Group-2-Copy-3" transform="translate(444.000000, 0.000000)" fill="#0B0A13">
                        <rect id="Rectangle-Copy-2" fill-opacity="0.1" x="0" y="0" width="106" height="40" rx="8"></rect>
                        <g id="League_Logo" transform="translate(13.000000, 6.000000)" fill-rule="nonzero">
                            <path d="M63.7951807,25.6987952 L52.8072289,25.6987952 L52.7710843,25.7710843 L52.7710843,25.6987952 L44.6746988,25.6987952 C42.1445783,25.6987952 40.5542169,26.6385542 39.686747,27.686747 C38.8192771,26.6385542 37.2289157,25.6987952 34.6987952,25.6987952 L15.253012,25.6987952 C15.0361446,25.6987952 14.8554217,25.6987952 14.6746988,25.6987952 L13.9518072,26.5662651 C14.3855422,26.6024096 14.8192771,26.6385542 15.253012,26.6385542 C15.253012,26.6385542 30.3253012,26.6385542 34.7349398,26.6385542 C39,26.6385542 39.686747,29.4939759 39.7228916,29.6746988 L39.7228916,29.6746988 C39.7228916,29.6746988 39.7228916,29.6746988 39.7228916,29.6746988 C39.7228916,29.6746988 39.7228916,29.6746988 39.7228916,29.6746988 L39.7228916,29.6746988 C39.7590361,29.4939759 40.4457831,26.6385542 44.7108434,26.6385542 C48.8674699,26.6385542 62.6385542,26.6385542 64.0481928,26.6385542 L63.7951807,25.6987952 Z" id="Path"></path>
                            <rect id="Rectangle" x="51.4698795" y="3.28915663" width="2.53012048" height="1"></rect>
                            <path d="M73.4819277,3.28915663 L65.7108434,3.28915663 L65.7108434,4.19277108 L71.6024096,4.19277108 C71.2771084,4.87951807 71.0963855,5.60240964 71.0963855,6.36144578 C71.0963855,9.07228916 73.373494,11.2771084 76.1566265,11.2771084 C76.9518072,11.2771084 77.7108434,11.0963855 78.3975904,10.7710843 C78.4337349,11.1325301 78.4337349,11.4939759 78.4337349,11.8554217 C78.4337349,15.1807229 77.2048193,18.2168675 75.2168675,20.6024096 C75.3614458,20.9277108 75.5060241,21.253012 75.5421687,21.6144578 C77.9277108,19.0120482 79.373494,15.6144578 79.373494,11.8554217 C79.373494,10.9518072 79.3012048,10.0481928 79.1204819,9.14457831 C78.3614458,9.86746988 77.3493976,10.3373494 76.1927711,10.3373494 C73.9156627,10.3373494 72.0722892,8.53012048 72.0722892,6.3253012 C72,5.13253012 72.5783133,4.01204819 73.4819277,3.28915663 Z" id="Path"></path>
                            <path d="M32.746988,2.20481928 C34.8795181,1.37349398 37.0120482,0.975903614 39.3253012,0.975903614 C39.4337349,0.975903614 39.5783133,0.975903614 39.686747,0.975903614 L39.7228916,0.975903614 C39.8313253,0.975903614 39.9759036,0.975903614 40.0843373,0.975903614 C42.3253012,0.975903614 44.3855422,1.3373494 46.4457831,2.13253012 C46.6987952,2.1686747 46.8795181,2.20481928 47.0240964,2.24096386 L48.939759,2.24096386 C46.0481928,0.759036145 43.0481928,0.0361445783 39.7228916,0.0722891566 C36.3614458,2.77555756e-17 33.3975904,0.722891566 30.5060241,2.20481928 L32.746988,2.20481928 Z" id="Path"></path>
                            <path d="M5.81927711,23.4216867 L5.81927711,22.2289157 C2.85542169,19.6987952 1.01204819,16.0120482 1.01204819,11.9277108 C1.01204819,11.5662651 1.01204819,11.2048193 1.04819277,10.8433735 C1.73493976,11.1686747 2.4939759,11.3493976 3.28915663,11.3493976 C6.07228916,11.3493976 8.34939759,9.14457831 8.34939759,6.43373494 C8.34939759,5.6746988 8.1686747,4.91566265 7.84337349,4.26506024 L14.7108434,4.26506024 L14.7108434,3.5060241 L14.6024096,3.36144578 L5.92771084,3.36144578 C6.86746988,4.08433735 7.44578313,5.20481928 7.44578313,6.46987952 C7.44578313,8.6746988 5.60240964,10.4819277 3.3253012,10.4819277 C2.1686747,10.4819277 1.15662651,10.0120482 0.397590361,9.28915663 C0.21686747,10.1566265 0.144578313,11.060241 0.144578313,12 C0.0722891566,16.5903614 2.31325301,20.746988 5.81927711,23.4216867 Z" id="Path"></path>
                            <polygon id="Path" points="18.1807229 4.19277108 21.5421687 4.19277108 20.7831325 3.28915663 18.1807229 3.28915663"></polygon>
                            <path d="M30.4698795,2.24096386 C30.0722892,2.45783133 29.6746988,2.6746988 29.2771084,2.89156627 L29.2771084,3.97590361 C29.8915663,3.61445783 30.4698795,3.25301205 31.0843373,2.96385542 L30.4698795,2.24096386 Z" id="Path"></path>
                            <path d="M30.9036145,12.3975904 L32.313253,8.89156627 L35.5662651,8.89156627 L37.0120482,12.3975904 L39.7590361,12.3975904 L38.6385542,11.4216867 L35.060241,3 L32.2048193,3 L32.8915663,3.8313253 L29.313253,12.3975904 L30.9036145,12.3975904 Z M33.939759,4.91566265 L35.0963855,7.69879518 L32.8192771,7.69879518 L33.939759,4.91566265 Z" id="Shape"></path>
                            <path d="M48.7590361,8.89156627 C48.7590361,9.86746988 48.7590361,10.8072289 49.5180723,11.6024096 C50.1325301,12.253012 51.1084337,12.6144578 52.1927711,12.6144578 C52.9879518,12.6144578 54.0361446,12.3975904 54.7590361,11.746988 L54.7590361,12.3614458 L57.3614458,12.3614458 L56.5301205,11.3855422 L56.5301205,4.01204819 L57.3614458,3 L54.7590361,3 L54.7590361,9.3253012 C54.7590361,10.4457831 54.0361446,11.2771084 52.5903614,11.2771084 C51.2168675,11.2771084 50.5301205,10.4457831 50.5301205,8.78313253 L50.5301205,3 L47.9277108,3 L48.7590361,4.01204819 L48.7590361,8.89156627 L48.7590361,8.89156627 Z" id="Path"></path>
                            <polygon id="Path" points="59.0240964 11.2409639 58.0481928 12.3975904 64.4096386 12.3975904 65.5662651 11.0240964 60.7951807 11.0240964 60.7951807 7.98795181 63.1807229 7.98795181 63.1807229 6.61445783 60.7951807 6.61445783 60.7951807 4.40963855 64.1566265 4.40963855 64.8072289 5.20481928 64.8072289 3 58.0481928 3 59.0240964 4.19277108"></polygon>
                            <path d="M44.4216867,12.6144578 C46.4096386,12.6144578 47.9277108,12.1807229 47.9277108,12.1807229 L47.9277108,7.44578313 L45.2168675,7.44578313 L46.1566265,8.56626506 L46.1566265,11.060241 C45.5783133,11.2048193 44.9638554,11.2771084 44.313253,11.2771084 C42.1084337,11.2771084 40.373494,9.61445783 40.373494,7.51807229 C40.373494,5.45783133 41.9277108,4.04819277 44.1325301,4.04819277 C46.1566265,4.04819277 46.8795181,4.87951807 46.8795181,4.87951807 L46.8795181,3 C46.8795181,3 45.7951807,2.74698795 44.4578313,2.74698795 C40.8433735,2.74698795 38.3855422,4.73493976 38.3855422,7.73493976 C38.4578313,10.6987952 40.8072289,12.6144578 44.4216867,12.6144578 Z" id="Path"></path>
                            <polygon id="Path" points="14.5662651 12.3975904 15.7951807 12.3975904 15.9759036 12.3975904 20.5662651 12.3975904 21.7228916 10.9879518 17.2771084 10.9879518 17.2771084 2.06024096 14.5662651 2.06024096 15.4337349 3.10843373 15.4337349 11.3493976"></polygon>
                            <polygon id="Path" points="22.5903614 11.2409639 21.6144578 12.3975904 28.373494 12.3975904 28.9879518 11.0240964 24.3614458 11.0240964 24.3614458 7.98795181 26.746988 7.98795181 26.746988 6.61445783 24.3614458 6.61445783 24.3614458 4.40963855 27.7228916 4.40963855 28.373494 5.20481928 28.373494 3 21.6144578 3 22.5903614 4.19277108"></polygon>
                            <path d="M58.3373494,14.2409639 L55.373494,14.2409639 L55.373494,14.2409639 L53.9638554,14.2409639 L55.0120482,15.4698795 L55.0120482,23.3493976 L53.9638554,24.5783133 L58.2289157,24.5783133 C61.7710843,24.5783133 64.2650602,22.4096386 64.2650602,19.3012048 C64.3012048,16.1927711 62.0240964,14.2409639 58.3373494,14.2409639 Z M57.939759,23.1325301 L56.9638554,23.1325301 L56.9638554,15.686747 C57.253012,15.686747 57.8313253,15.686747 58.1927711,15.686747 C60.7951807,15.686747 62.1686747,17.0240964 62.1686747,19.5180723 C62.1686747,22.1927711 60,23.1325301 57.939759,23.1325301 Z" id="Shape"></path>
                            <polygon id="Path" points="8.85542169 13.4457831 8.85542169 12.0361446 5.42168675 12.0361446 6.57831325 13.4096386 6.57831325 25.5180723 5.42168675 26.8915663 12.4698795 26.8915663 14.2048193 24.8313253 8.85542169 24.8313253"></polygon>
                            <path d="M70.373494,18.1807229 C68.6746988,17.4578313 67.0481928,16.7349398 67.0481928,15.5421687 C67.0481928,14.2409639 68.4939759,13.8072289 69.7590361,13.8072289 C71.0240964,13.8072289 72.3614458,14.313253 73.1566265,15.0722892 L73.4457831,15.3614458 L73.4457831,12.3975904 L73.3012048,12.3614458 C72.253012,12.0361446 71.0963855,11.8915663 69.9036145,11.8915663 C66.5421687,11.8915663 64.5180723,13.3373494 64.5180723,15.7590361 C64.5180723,18.2891566 66.8674699,19.2650602 68.9277108,20.1686747 C70.626506,20.8915663 72.253012,21.5783133 72.253012,22.9518072 C72.253012,24.253012 70.4819277,24.9759036 69.2168675,24.9759036 C67.5180723,24.9759036 65.746988,24.3253012 64.4096386,23.2771084 L63.9759036,22.9518072 L64.7710843,26.2048193 L64.8795181,26.2409639 C66.1084337,26.6746988 67.4819277,26.8915663 68.9638554,26.8915663 C72.7228916,26.8915663 74.7108434,24.5421687 74.7108434,22.3373494 C74.7831325,20.060241 72.4337349,19.0481928 70.373494,18.1807229 Z" id="Path"></path>
                            <polygon id="Path" points="37.0481928 23.060241 37.0481928 19.7349398 39.686747 19.7349398 39.686747 18.1807229 37.0481928 18.1807229 37.0481928 15.7590361 40.7710843 15.7590361 41.4939759 16.626506 41.4939759 15.7590361 41.4939759 15.7590361 41.4939759 14.2409639 34.0120482 14.2409639 35.0963855 15.5060241 35.0963855 23.313253 34.0120482 24.6144578 41.0240964 24.6144578 42.3253012 23.060241"></polygon>
                            <path d="M22.3373494,23.060241 L17.5662651,23.060241 L17.5662651,19.7349398 L20.2048193,19.7349398 L20.2048193,18.1807229 L17.5662651,18.1807229 L17.5662651,15.7590361 L21.253012,15.7590361 L21.9759036,16.626506 L21.9759036,14.2048193 L14.5301205,14.2048193 L15.6144578,15.5060241 L15.6144578,23.313253 L14.5301205,24.6144578 L23.9638554,24.6144578 C22.9518072,24 22.3373494,23.060241 22.3373494,23.060241 Z" id="Path"></path>
                            <path d="M31.1566265,19.1927711 L30.1084337,19.1927711 L31.1566265,20.4578313 L31.1566265,23.2771084 C30.5060241,23.4578313 29.8192771,23.5301205 29.0963855,23.5301205 C26.6024096,23.5301205 24.686747,21.686747 24.686747,19.3012048 C24.686747,16.9879518 26.4216867,15.3975904 28.9156627,15.3975904 C29.4939759,15.3975904 31.2289157,15.4698795 31.9518072,16.2650602 L31.9879518,16.3373494 L31.9879518,14.2409639 L31.8433735,14.2048193 C30.939759,14.0240964 30.1084337,13.9518072 29.2771084,13.9518072 C25.1927711,13.9518072 22.4457831,16.1927711 22.4457831,19.5542169 C22.4457831,22.8795181 25.0843373,25.0481928 29.1686747,25.0481928 C30.4337349,25.0481928 31.6626506,24.8313253 32.9277108,24.6144578 L33.1445783,24.5783133 L33.1445783,19.1927711 L31.3373494,19.1927711 L31.1566265,19.1927711 Z" id="Path"></path>
                            <path d="M65.6746988,7.37349398 L65.6746988,7.37349398 C65.060241,7.37349398 64.5542169,7.84337349 64.5542169,8.38554217 C64.5542169,8.96385542 65.0240964,9.39759036 65.6385542,9.39759036 C66.253012,9.39759036 66.7228916,8.92771084 66.7228916,8.34939759 C66.7228916,7.80722892 66.2891566,7.37349398 65.6746988,7.37349398 Z M65.6746988,9.03614458 C65.313253,9.03614458 65.060241,8.6746988 65.060241,8.34939759 C65.060241,7.98795181 65.313253,7.73493976 65.6385542,7.73493976 C66.0361446,7.73493976 66.2168675,8.09638554 66.2168675,8.42168675 C66.253012,8.78313253 66,9.03614458 65.6746988,9.03614458 Z" id="Shape"></path>
                            <polygon id="Path" points="67.4819277 8.20481928 67.4819277 7.80722892 67.9156627 7.80722892 68.313253 7.98795181 68.0963855 7.40963855 66.7590361 7.40963855 67.0120482 7.73493976 67.0120482 9.07228916 66.7590361 9.39759036 67.4819277 9.39759036 67.4819277 8.53012048 68.2048193 8.53012048 68.0963855 8.20481928 67.4819277 8.20481928"></polygon>
                            <polygon id="Path" points="50.7831325 19.9156627 45.1807229 14.2409639 45.1807229 14.2409639 45.1445783 14.2409639 42.5421687 14.2409639 43.373494 15.2168675 43.373494 23.313253 42.2891566 24.6144578 42.3614458 24.6144578 42.3253012 24.6144578 45.3614458 24.6144578 45.3614458 17.0963855 52.7349398 24.6144578 52.7349398 15.2891566 53.8192771 14.2409639 50.7831325 14.2409639"></polygon>
                            <polygon id="Path" points="75.1692771 13.0391566 75.0192771 13.0391566 75.0192771 12.8891566 75.4192771 12.8891566 75.4192771 13.0391566 75.2692771 13.0391566 75.2692771 13.7141566 75.1192771 13.7141566 75.1192771 13.0391566"></polygon>
                            <path d="M75.9692771,13.4141566 C75.9692771,13.3391566 75.9692771,13.1891566 75.9692771,13.0391566 L75.9692771,13.0391566 C75.9692771,13.1141566 75.9192771,13.2641566 75.9192771,13.3391566 L75.8692771,13.6391566 L75.7692771,13.6391566 L75.7192771,13.3391566 C75.7192771,13.2641566 75.6692771,13.1141566 75.6692771,13.0391566 L75.6692771,13.0391566 C75.6692771,13.1141566 75.6692771,13.2641566 75.6692771,13.4141566 L75.6692771,13.7141566 L75.5692771,13.7141566 L75.6192771,12.8891566 L75.7692771,12.8891566 L75.8192771,13.1891566 C75.8192771,13.2641566 75.8692771,13.4141566 75.8692771,13.4891566 L75.8692771,13.4891566 C75.8692771,13.4141566 75.9192771,13.2641566 75.9192771,13.1891566 L75.9692771,12.8891566 L76.1192771,12.8891566 L76.1692771,13.7141566 L76.0692771,13.7141566 L75.9692771,13.4141566 Z" id="Path"></path>
                        </g>
                    </g>
                    <g id="Group-2-Copy-4" transform="translate(555.000000, 0.000000)">
                        <rect id="Rectangle-Copy-2" fill-opacity="0.1" fill="#0B0A13" x="0" y="0" width="106" height="40" rx="8"></rect>
                        <g id="pubg-1" transform="translate(25.000000, 4.000000)" fill="#000000" fill-rule="nonzero">
                            <path d="M3.58268156,0.117374517 C3.19553073,0.234749035 2.90670391,0.395366795 2.69162011,0.661003861 C2.38435754,1.03166023 2.37206704,1.08725869 2.39664804,2.19305019 C2.40893855,2.82934363 2.40893855,3.95366795 2.39664804,4.71351351 C2.38435754,6.07258687 2.38435754,6.07258687 2.13240223,5.99227799 C1.62849162,5.81930502 0.424022346,5.8996139 0.22122905,6.12200772 C0.0491620112,6.30733591 0.0491620112,6.30733591 0.245810056,6.23938224 C0.393296089,6.196139 0.442458101,6.21467181 0.405586592,6.30733591 C0.381005587,6.38764479 0.288826816,6.44324324 0.22122905,6.42471042 C0.141340782,6.41235521 0.0921787709,6.62239382 0.0921787709,6.9992278 C0.0921787709,7.33281853 0.0553072626,7.796139 0.0245810056,8.01235521 C-0.0184357542,8.33359073 0.0245810056,8.47567568 0.26424581,8.72895753 C0.540782123,9.02548263 0.632960894,9.05019305 1.45642458,9.05019305 C2.22458101,9.05019305 2.35977654,9.08725869 2.40893855,9.24787645 C2.47653631,9.51351351 2.39664804,22.6594595 2.32905028,22.8447876 C2.29217877,22.9498069 2.03407821,22.9930502 1.53631285,22.9930502 C1.03854749,22.9930502 0.675977654,23.0610039 0.448603352,23.1907336 C0.104469274,23.4007722 0.0921787709,23.419305 0.0798882682,24.3212355 C0.0553072626,26.1559846 0.104469274,26.2239382 1.54860335,26.2239382 L2.51340782,26.2239382 L2.47653631,28.4355212 C2.43351955,31.5490347 2.51955307,31.6849421 4.74413408,31.8084942 C8.04413408,31.9814672 17.7044693,32.0494208 19.2899441,31.9135135 C19.8430168,31.8702703 20.3346369,31.8579151 20.8692737,31.8702703 C21.6128492,31.8826255 21.7972067,31.8702703 21.9324022,31.7405405 C22.049162,31.6478764 22.0921788,31.6478764 22.0921788,31.7405405 C22.0921788,31.8084942 22.147486,31.8702703 22.2089385,31.8702703 C22.2765363,31.8702703 22.3256983,31.765251 22.3256983,31.6293436 C22.3256983,31.4996139 22.2826816,31.4316602 22.2089385,31.4687259 C22.1536313,31.5057915 22.0921788,31.4810811 22.0921788,31.4131274 C22.0921788,31.2030888 22.3687151,31.3451737 22.4916201,31.623166 C22.6083799,31.8764479 22.6391061,31.8764479 25.1832402,31.8764479 C26.6027933,31.8764479 28.550838,31.9135135 29.5156425,31.9444015 C32.1150838,32.0494208 36.1893855,31.9011583 36.1893855,31.6911197 C36.1893855,31.5984556 36.2446927,31.5305019 36.3184358,31.5305019 C36.3860335,31.5305019 36.422905,31.6108108 36.373743,31.7034749 C36.3307263,31.8517375 36.4536313,31.8764479 37.1972067,31.8764479 C37.6765363,31.8888031 40.3251397,31.9011583 43.0905028,31.9135135 C45.8435754,31.9258687 48.0620112,31.9011583 48.0312849,31.8455598 C48.0067039,31.8023166 48.0681564,31.765251 48.1664804,31.765251 C48.2832402,31.765251 48.3139665,31.8208494 48.2709497,31.9011583 C48.1357542,32.1173745 51.1346369,31.9382239 51.6385475,31.6849421 C52.4743017,31.2710425 52.5234637,31.0980695 52.5296089,28.596139 C52.5418994,27.3606178 52.5726257,26.2795367 52.6217877,26.1745174 C52.6648045,26.03861 52.7569832,26.0138996 52.9413408,26.0694981 C53.2731844,26.1868726 54.5206704,26.1250965 54.7541899,26.0015444 C54.901676,25.9088803 54.8893855,25.8965251 54.7173184,25.8841699 C54.5882682,25.8841699 54.5206704,25.8285714 54.5575419,25.7359073 C54.5821229,25.6679537 54.6620112,25.6061776 54.7173184,25.6185328 C54.8648045,25.6555985 54.9815642,23.8084942 54.852514,23.5799228 C54.5759777,23.0857143 54.5329609,23.0610039 53.4882682,23.0054054 L52.4435754,22.9498069 L52.4189944,16 L52.3821229,9.06254826 L53.4022346,9.06254826 C54.3424581,9.06254826 54.4223464,9.03783784 54.6988827,8.74131274 C54.9385475,8.48803089 54.9877095,8.35212355 54.9385475,8.02471042 C54.901676,7.80849421 54.8709497,7.34517375 54.8709497,7.02393822 C54.8709497,6.63474903 54.827933,6.42471042 54.7418994,6.44942085 C54.6743017,6.46177606 54.5821229,6.40617761 54.5575419,6.31969112 C54.5206704,6.22702703 54.5698324,6.2023166 54.7173184,6.25173745 C54.901676,6.31969112 54.901676,6.30733591 54.7541899,6.14671815 C54.5698324,5.94903475 53.4391061,5.85637066 52.922905,5.9984556 C52.4067039,6.13436293 52.3636872,6.01081081 52.2899441,3.93513514 C52.1608939,0.728957529 51.9212291,0.271814672 50.3541899,0.315057915 C49.8932961,0.327413127 49.4631285,0.302702703 49.3893855,0.271814672 C49.2664804,0.160617761 47.3184358,0.0247104247 46.3351955,0.0247104247 C45.9541899,0.0370656371 45.2905028,0.0370656371 44.8480447,0.0370656371 C44.4117318,0.0370656371 42.1441341,0.0617760618 39.8027933,0.0741312741 C37.473743,0.0864864865 35.126257,0.111196911 34.5854749,0.12972973 C34.0446927,0.148262548 33.3810056,0.172972973 33.098324,0.166795367 C28.649162,0.0988416988 24.9620112,0.0741312741 24.7653631,0.123552124 C24.6178771,0.160617761 24.5134078,0.228571429 24.5379888,0.271814672 C24.5502793,0.315057915 24.5134078,0.364478764 24.4458101,0.376833977 C24.3905028,0.401544402 24.3290503,0.33976834 24.3290503,0.259459459 C24.3290503,0.154440154 23.7759777,0.123552124 21.9815642,0.123552124 C20.1564246,0.123552124 19.6463687,0.160617761 19.652514,0.259459459 C19.677095,0.33976834 19.6094972,0.407722008 19.5050279,0.407722008 C19.4128492,0.407722008 19.3575419,0.364478764 19.3882682,0.302702703 C19.5234637,0.0926640927 18.7798883,0.0617760618 13.5564246,0.0617760618 C10.6558659,0.0617760618 7.35586592,0.0370656371 6.21899441,0.0185328185 C4.71340782,-0.0185328185 3.99441341,0.0123552124 3.58268156,0.117374517 Z M26.8793296,3.23706564 C42.5681564,3.26177606 47.7608939,3.22471042 47.7608939,3.13204633 C47.7608939,3.02702703 47.7977654,3.03938224 47.8530726,3.13204633 C47.8960894,3.21235521 48.1972067,3.29266409 48.5044693,3.30501931 L49.0759777,3.34208494 L49.0882682,3.91660232 C49.1128492,4.83706564 49.2603352,14.1467181 49.2480447,14.3444015 C49.2111732,15.3266409 49.2480447,22.7335907 49.303352,25.3158301 C49.3586592,27.8980695 49.3463687,28.6332046 49.2357542,28.7011583 C49.1558659,28.7444015 48.7195531,28.769112 48.2832402,28.7567568 C47.4351955,28.7196911 44.3379888,28.7196911 32.4653631,28.7320463 C26.3078212,28.7444015 25.5089385,28.769112 25.5642458,28.9173745 C25.6072626,29.034749 25.5519553,29.0903475 25.4044693,29.0903475 C25.2569832,29.0903475 25.1955307,29.034749 25.2446927,28.9173745 C25.3,28.769112 24.5810056,28.7567568 19.4804469,28.7567568 C16.2849162,28.769112 12.7206704,28.8 11.5592179,28.8370656 C10.4100559,28.8803089 9.47597765,28.8803089 9.47597765,28.8247104 C9.47597765,28.6888031 9.07653631,28.7320463 8.92290503,28.8803089 C8.81843575,28.9853282 8.75083799,28.9976834 8.69553073,28.9050193 C8.65251397,28.8123552 8.09944134,28.769112 7.19608939,28.7567568 C6.41564246,28.7444015 5.7273743,28.7135135 5.68435754,28.6764479 C5.62905028,28.6393822 5.57988827,28.2069498 5.57988827,27.6880309 C5.57988827,26.9158301 5.55530726,26.7799228 5.40782123,26.8355212 C5.29106145,26.8787645 5.23575419,26.823166 5.23575419,26.6749035 C5.23575419,26.5266409 5.29106145,26.4648649 5.40782123,26.5142857 C5.55530726,26.5698842 5.57988827,26.0633205 5.59217877,22.4 C5.63519553,8.61776062 5.63519553,8.77837838 5.47541899,8.72277992 C5.38324022,8.68571429 5.35865922,8.64247104 5.43854749,8.59305019 C5.61061453,8.48803089 5.63519553,7.0980695 5.47541899,6.58532819 C5.39553073,6.35675676 5.37094972,6.1034749 5.43240223,6.02316602 C5.47541899,5.94285714 5.52458101,5.29420849 5.54916201,4.60849421 C5.56145251,3.9042471 5.57374302,3.27413127 5.57374302,3.18146718 C5.58603352,3.07644788 5.65363128,3.05173745 5.78882682,3.12586873 C5.89329609,3.16911197 15.3877095,3.22471042 26.8793296,3.23706564 L26.8793296,3.23706564 Z" id="Shape"></path>
                            <path d="M41.9536313,6.14054054 L39.5139665,6.16525097 L39.0653631,6.603861 C38.6843575,6.97451737 38.6044693,7.12277992 38.549162,7.66640927 C38.4201117,8.75984556 38.4201117,10.2918919 38.524581,12.7382239 C38.5798883,14.0416988 38.6167598,15.3081081 38.5921788,15.56139 C38.5675978,15.8146718 38.549162,17.9335907 38.549162,20.2872587 L38.5368715,24.5498069 L38.8134078,25.0007722 C38.9608939,25.2416988 39.2497207,25.5073359 39.452514,25.6 C39.9134078,25.7976834 44.5162011,25.8409266 45.124581,25.6555985 C45.6837989,25.4826255 46.1324022,24.9081081 46.2,24.2718147 C46.3167598,23.153668 46.2675978,14.6409266 46.1446927,14.3196911 L46.0156425,14.0108108 L44.4424581,14.0108108 C43.3793296,14.0108108 42.826257,14.0540541 42.7340782,14.1467181 C42.6418994,14.2393822 42.5988827,14.6903475 42.5988827,15.388417 L42.5988827,16.4942085 L42.9430168,16.6918919 L43.2871508,16.9019305 L43.2994413,18.1930502 C43.2994413,18.9096525 43.2994413,20.0586873 43.2871508,20.7752896 C43.2748603,21.5474903 43.3240223,22.1467181 43.4039106,22.2702703 C43.4960894,22.4185328 43.5083799,22.5667954 43.4162011,22.7891892 C43.2994413,23.0980695 43.2871508,23.0980695 42.4329609,23.0548263 C41.4558659,23.011583 41.2776536,22.9374517 41.4558659,22.7088803 C41.5849162,22.5482625 41.6402235,14.4926641 41.5357542,10.7057915 L41.4804469,8.85250965 L42.3039106,8.80926641 C43.5329609,8.75366795 43.5206704,8.74131274 43.5206704,9.56911197 C43.5206704,9.97065637 43.5759777,10.3413127 43.6558659,10.4216216 C43.7603352,10.5266409 43.7603352,10.557529 43.6558659,10.557529 C43.4039106,10.557529 43.5083799,10.8787645 43.7849162,10.9405405 C44.196648,11.0208494 45.8128492,10.9528958 45.9296089,10.8355212 C45.9726257,10.7799228 46.0463687,9.89034749 46.077095,8.85250965 L46.1201117,6.96216216 L45.8005587,6.64092664 C45.5240223,6.36293436 45.2843575,6.27027027 44.5162011,6.14671815 C44.4424581,6.12200772 43.2810056,6.12200772 41.9536313,6.14054054 L41.9536313,6.14054054 Z M9.19944134,6.36293436 C9.09497207,6.46795367 9.06424581,7.12277992 9.09497207,8.72277992 C9.13184358,11.3050193 9.11955307,11.1073359 9.2547486,10.8911197 C9.34692737,10.7552124 9.37150838,10.7861004 9.37150838,11.027027 C9.37150838,11.1876448 9.31620112,11.3482625 9.23631285,11.372973 C9.13184358,11.4100386 9.10111732,11.9042471 9.10111732,13.0903475 C9.08882682,14.5297297 9.06424581,14.7953668 8.89217877,14.9683398 C8.72011173,15.1289575 8.68324022,15.3822394 8.68324022,16.4447876 C8.68324022,17.1490347 8.72011173,17.6864865 8.76312849,17.6555985 C8.86759777,17.5505792 9.2547486,17.9088803 9.2547486,18.1189189 C9.2547486,18.1992278 9.21787709,18.2671815 9.17486034,18.2671815 C9.11955307,18.2671815 9.07039106,19.8486486 9.04581006,21.7822394 C9.03351955,23.7158301 9.07039106,25.2972973 9.11340782,25.2972973 C9.16871508,25.2972973 9.27318436,25.427027 9.34078212,25.5876448 C9.4698324,25.8656371 9.51284916,25.8779923 10.6128492,25.8779923 C12.3089385,25.8779923 12.2167598,26.0880309 12.1860335,21.8934363 C12.1614525,20.0586873 12.1430168,18.5081081 12.1184358,18.446332 C11.9893855,17.9521236 12.050838,17.9274131 13.6793296,17.9274131 C15.4430168,17.9274131 16.1067039,17.7976834 16.5,17.3837838 L16.7642458,17.0934363 L16.8011173,12.0957529 C16.8256983,8.72895753 16.7888268,7.01158301 16.7089385,6.86332046 C16.4201117,6.33204633 16.1128492,6.28880309 12.6162011,6.25173745 C10.1949721,6.23320463 9.28547486,6.25791506 9.19944134,6.36293436 L9.19944134,6.36293436 Z M13.7223464,9.12432432 C13.7346369,9.24169884 13.7346369,10.4710425 13.7469274,11.8671815 C13.7469274,13.2633205 13.7837989,14.3073359 13.8022346,14.196139 C13.8944134,13.8501931 14.0664804,13.9861004 14.0664804,14.4123552 C14.0664804,14.7459459 14.0296089,14.8138996 13.8821229,14.7583012 C13.7530726,14.7150579 13.7223464,14.7459459 13.7653631,14.8942085 C13.8206704,15.0671815 13.7530726,15.0918919 13.0648045,15.0548263 C12.6284916,15.0301158 12.2413408,14.9374517 12.149162,14.8571429 C11.9648045,14.6718147 11.952514,14.3382239 12.124581,14.3382239 C12.2044693,14.3382239 12.2290503,13.5289575 12.1798883,11.7003861 C12.1553073,10.2486486 12.1553073,9.02548263 12.1921788,8.99459459 C12.2351955,8.95752896 12.5916201,8.92664093 12.9972067,8.92664093 C13.6117318,8.93281853 13.7223464,8.96370656 13.7223464,9.12432432 L13.7223464,9.12432432 Z M19.0072626,6.32586873 C18.8106145,6.55444015 18.8782123,9.11196911 19.0871508,9.06872587 C19.1547486,9.05637066 19.2223464,9.12432432 19.2223464,9.21698842 C19.2223464,9.30965251 19.1547486,9.37760618 19.0871508,9.35289575 C18.9826816,9.34054054 18.9273743,9.52586873 18.9027933,9.93976834 C18.8782123,10.4216216 18.9027933,10.5389961 19.0195531,10.4710425 C19.1363128,10.4030888 19.1363128,10.415444 19.0441341,10.5513514 C18.8597765,10.792278 18.7368715,23.8455598 18.9089385,24.6177606 C19.0134078,25.0316602 19.1363128,25.2540541 19.4251397,25.4579151 L19.8061453,25.7544402 L22.8111732,25.7111969 C26.1603352,25.6679537 26.4,25.6061776 26.7625698,24.9019305 C27.0145251,24.407722 27.1189944,20.5220077 27.0575419,13.757529 C27.0329609,11.0023166 27.0145251,8.25945946 27.0145251,7.68494208 C27.0145251,7.01776062 26.9715084,6.59150579 26.8854749,6.52972973 C26.8055866,6.49266409 26.7256983,6.51737452 26.7011173,6.58532819 C26.6458101,6.78301158 26.449162,6.75830116 26.449162,6.54826255 C26.449162,6.41235521 26.2648045,6.37528958 25.472067,6.37528958 C23.8988827,6.37528958 24.0156425,5.99227799 24.027933,11.3050193 C24.0402235,13.757529 24.0709497,16.4571429 24.1078212,17.2849421 C24.1631285,18.3783784 24.1446927,18.8169884 24.052514,18.8169884 C23.8435754,18.8169884 23.9050279,19.2555985 24.1324022,19.3791506 C24.2675978,19.4718147 24.2921788,19.5274131 24.1877095,19.5891892 C24.1078212,19.6571429 24.0402235,20.2254826 24.0156425,21.2571429 C23.9787709,22.5915058 23.9480447,22.8694981 23.7759777,23.042471 C23.5793296,23.2401544 23.5608939,23.2401544 23.4195531,23.042471 C23.247486,22.8262548 22.7681564,22.7891892 22.4240223,22.9745174 C22.0798883,23.1474903 21.7234637,22.8138996 21.8156425,22.4 C21.8955307,22.0540541 21.950838,12.4911197 21.8955307,9.02548263 L21.852514,6.65328185 L21.3608939,6.38764479 C21.0290503,6.2023166 20.7893855,6.13436293 20.6480447,6.2023166 C20.4329609,6.29498069 19.6648045,6.29498069 19.3329609,6.18996139 C19.2284916,6.18996139 19.0871508,6.23320463 19.0072626,6.32586873 Z M29.2206704,6.31351351 C29.0916201,6.48648649 29.0486034,10.6687259 29.1776536,11.230888 C29.2329609,11.4471042 29.2329609,11.9907336 29.2022346,12.4416988 C29.1592179,12.8926641 29.1653631,13.3065637 29.2268156,13.3868726 C29.3743017,13.5722008 29.2268156,13.9984556 29.0178771,13.9984556 C28.9256983,13.9984556 28.8826816,14.0540541 28.9134078,14.1158301 C28.9502793,14.1837838 28.9011173,14.3135135 28.8089385,14.4123552 C28.6,14.6223938 28.5446927,16.234749 28.7413408,16.3583012 C28.8089385,16.3953668 28.8581006,16.5312741 28.8581006,16.6486486 C28.8581006,16.7660232 28.9134078,16.8772201 28.9871508,16.9019305 C29.0916201,16.9389961 29.1223464,17.9706564 29.1223464,20.6826255 C29.1100559,22.8509653 29.1592179,24.4818533 29.2268156,24.5683398 C29.2821229,24.6362934 29.2821229,24.7289575 29.2391061,24.753668 C29.1837989,24.7907336 29.1592179,25.0316602 29.1837989,25.2849421 L29.2268156,25.7544402 L32.2871508,25.7173745 C36.8469274,25.6803089 36.5826816,26.007722 36.5949721,20.3366795 C36.5949721,16.5250965 36.5826816,16.3521236 36.3675978,16.1173745 C35.6793296,15.3698842 35.5994413,15.2277992 35.7837989,15.1289575 C36.2446927,14.8756757 36.3553073,14.3444015 36.3798883,12.6146718 C36.3921788,11.6942085 36.4167598,10.0200772 36.4351955,8.8957529 C36.472067,6.96216216 36.4597765,6.83243243 36.226257,6.61621622 C35.8698324,6.25791506 35.3351955,6.18996139 32.2256983,6.17760618 C30.0564246,6.17760618 29.3128492,6.2023166 29.2206704,6.31351351 L29.2206704,6.31351351 Z M33.5100559,8.94517375 C33.5776536,9.06254826 33.5776536,9.93359073 33.5100559,13.3127413 C33.4977654,14.1528958 33.4424581,14.2023166 32.5821229,14.0602317 L32.0905028,13.992278 L32.022905,12.9915058 C31.9860335,12.4355212 31.9553073,11.9104247 31.9430168,11.8177606 C31.9430168,11.7250965 31.9798883,11.0084942 32.022905,10.2301158 L32.1027933,8.82162162 L32.7664804,8.82162162 C33.1290503,8.81544402 33.4608939,8.87104247 33.5100559,8.94517375 L33.5100559,8.94517375 Z M33.4608939,17.0440154 C33.5039106,17.1119691 33.5530726,18.0015444 33.5530726,19.0146718 C33.5530726,20.0277992 33.5653631,21.3312741 33.5653631,21.9181467 C33.5776536,22.4926641 33.5530726,23.0239382 33.5100559,23.0795367 C33.4178771,23.2277992 32.2256983,23.1722008 32.0290503,22.9992278 C31.9,22.8942085 31.8815642,22.7583012 31.949162,22.4432432 C32.0044693,22.2146718 32.0536313,20.9111969 32.0536313,19.5397683 C32.0536313,17.396139 32.0782123,17.0378378 32.2379888,16.9266409 C32.4530726,16.7660232 33.3379888,16.846332 33.4608939,17.0440154 L33.4608939,17.0440154 Z" id="Shape"></path>
                        </g>
                    </g>
                </g>
            </g>
        </g>
    </g>
</svg>