<?xml version="1.0" encoding="UTF-8"?>
<svg width="1440px" height="800px" viewBox="0 0 1440 800" version="1.1" xmlns="http://www.w3.org/2000/svg" xmlns:xlink="http://www.w3.org/1999/xlink">
    <!-- Generator: Sketch 63.1 (92452) - https://sketch.com -->
    <title>HeroBG</title>
    <desc>Created with Sketch.</desc>
    <defs>
        <rect id="path-1" x="0" y="-1.13686838e-13" width="1440" height="800"></rect>
    </defs>
    <g id="Marketing-Site" stroke="none" stroke-width="1" fill="none" fill-rule="evenodd">
        <g id="Home">
            <g id="HeroBG" transform="translate(0.000000, 0.000000)">
                <mask id="mask-2" fill="white">
                    <use xlink:href="#path-1"></use>
                </mask>
                <use id="Rectangle" fill="#FFD500" xlink:href="#path-1"></use>
                <path d="M1428.05247,295 C1432.35292,295 1436.17554,292.746394 1438.08685,289.365986 L1567.10035,28.6237981 C1568.77274,25.2433894 1568.056,21.4122596 1565.42795,18.7079327 C1563.27772,16.6796875 1560.41076,15.327524 1557.30488,15.327524 C1556.34922,15.327524 1555.39357,15.5528846 1554.43791,15.7782452 L1459.82802,37.8635817 L1500.68229,-66.4783654 C1501.39903,-67.8305288 1501.87686,-69.1826923 1501.87686,-70.5348558 C1501.87686,-75.718149 1497.09858,-80 1491.12573,-80 L1412.76198,-80 C1407.74479,-80 1403.44434,-77.0703125 1402.24977,-72.7884615 L1354.22808,113.134014 C1353.51134,116.289062 1354.467,119.669471 1357.33396,121.923077 C1359.24527,123.500601 1362.11224,124.402043 1364.74029,124.402043 C1365.69595,124.402043 1366.6516,124.402043 1367.60726,124.176683 L1464.60629,101.415264 L1417.54026,283.506611 C1416.34569,288.239183 1419.45157,292.971755 1424.70768,294.549279 C1425.90225,294.774639 1427.09682,295 1428.05247,295 Z" id="" fill-opacity="0.15" fill="#FFFFFF" mask="url(#mask-2)" transform="translate(1461.000000, 107.500000) rotate(90.000000) translate(-1461.000000, -107.500000) "></path>
                <path d="M1240.05247,587 C1244.35292,587 1248.17554,584.746394 1250.08685,581.365986 L1379.10035,320.623798 C1380.77274,317.243389 1380.056,313.41226 1377.42795,310.707933 C1375.27772,308.679688 1372.41076,307.327524 1369.30488,307.327524 C1368.34922,307.327524 1367.39357,307.552885 1366.43791,307.778245 L1271.82802,329.863582 L1312.68229,225.521635 C1313.39903,224.169471 1313.87686,222.817308 1313.87686,221.465144 C1313.87686,216.281851 1309.09858,212 1303.12573,212 L1224.76198,212 C1219.74479,212 1215.44434,214.929688 1214.24977,219.211538 L1166.22808,405.134014 C1165.51134,408.289063 1166.467,411.669471 1169.33396,413.923077 C1171.24527,415.500601 1174.11224,416.402043 1176.74029,416.402043 C1177.69595,416.402043 1178.6516,416.402043 1179.60726,416.176683 L1276.60629,393.415264 L1229.54026,575.506611 C1228.34569,580.239183 1231.45157,584.971755 1236.70768,586.549279 C1237.90225,586.774639 1239.09682,587 1240.05247,587 Z" id="-copy" fill-opacity="0.15" fill="#FFFFFF" mask="url(#mask-2)" transform="translate(1273.000000, 399.500000) rotate(90.000000) translate(-1273.000000, -399.500000) "></path>
                <path d="M1053.05247,880 C1057.35292,880 1061.17554,877.746394 1063.08685,874.365986 L1192.10035,613.623798 C1193.77274,610.243389 1193.056,606.41226 1190.42795,603.707933 C1188.27772,601.679687 1185.41076,600.327524 1182.30488,600.327524 C1181.34922,600.327524 1180.39357,600.552885 1179.43791,600.778245 L1084.82802,622.863582 L1125.68229,518.521635 C1126.39903,517.169471 1126.87686,515.817308 1126.87686,514.465144 C1126.87686,509.281851 1122.09858,505 1116.12573,505 L1037.76198,505 C1032.74479,505 1028.44434,507.929687 1027.24977,512.211538 L979.228083,698.134014 C978.511341,701.289062 979.466997,704.669471 982.333963,706.923077 C984.245274,708.500601 987.112241,709.402043 989.740293,709.402043 C990.695949,709.402043 991.651604,709.402043 992.60726,709.176683 L1089.60629,686.415264 L1042.54026,868.506611 C1041.34569,873.239183 1044.45157,877.971755 1049.70768,879.549279 C1050.90225,879.774639 1052.09682,880 1053.05247,880 Z" id="-copy-2" fill-opacity="0.15" fill="#FFFFFF" mask="url(#mask-2)" transform="translate(1086.000000, 692.500000) rotate(90.000000) translate(-1086.000000, -692.500000) "></path>
                <path d="M866.052471,295 C870.352921,295 874.175543,292.746394 876.086854,289.365986 L1005.10035,28.6237981 C1006.77274,25.2433894 1006.056,21.4122596 1003.42795,18.7079327 C1001.27772,16.6796875 998.410758,15.327524 995.304878,15.327524 C994.349223,15.327524 993.393567,15.5528846 992.437912,15.7782452 L897.828016,37.8635817 L938.682289,-66.4783654 C939.399031,-67.8305288 939.876859,-69.1826923 939.876859,-70.5348558 C939.876859,-75.718149 935.098581,-80 929.125734,-80 L850.761983,-80 C845.744791,-80 841.444341,-77.0703125 840.249772,-72.7884615 L792.228083,113.134014 C791.511341,116.289062 792.466997,119.669471 795.333963,121.923077 C797.245274,123.500601 800.112241,124.402043 802.740293,124.402043 C803.695949,124.402043 804.651604,124.402043 805.60726,124.176683 L902.606294,101.415264 L855.54026,283.506611 C854.345691,288.239183 857.451571,292.971755 862.707676,294.549279 C863.902246,294.774639 865.096815,295 866.052471,295 Z" id="-copy-3" fill-opacity="0.15" fill="#FFFFFF" mask="url(#mask-2)" transform="translate(899.000000, 107.500000) rotate(90.000000) translate(-899.000000, -107.500000) "></path>
                <path d="M322.052471,295 C326.352921,295 330.175543,292.746394 332.086854,289.365986 L461.100347,28.6237981 C462.772744,25.2433894 462.056003,21.4122596 459.42795,18.7079327 C457.277725,16.6796875 454.410758,15.327524 451.304878,15.327524 C450.349223,15.327524 449.393567,15.5528846 448.437912,15.7782452 L353.828016,37.8635817 L394.682289,-66.4783654 C395.399031,-67.8305288 395.876859,-69.1826923 395.876859,-70.5348558 C395.876859,-75.718149 391.098581,-80 385.125734,-80 L306.761983,-80 C301.744791,-80 297.444341,-77.0703125 296.249772,-72.7884615 L248.228083,113.134014 C247.511341,116.289062 248.466997,119.669471 251.333963,121.923077 C253.245274,123.500601 256.112241,124.402043 258.740293,124.402043 C259.695949,124.402043 260.651604,124.402043 261.60726,124.176683 L358.606294,101.415264 L311.54026,283.506611 C310.345691,288.239183 313.451571,292.971755 318.707676,294.549279 C319.902246,294.774639 321.096815,295 322.052471,295 Z" id="-copy-6" fill-opacity="0.15" fill="#FFFFFF" mask="url(#mask-2)" transform="translate(355.000000, 107.500000) rotate(90.000000) translate(-355.000000, -107.500000) "></path>
                <path d="M678.052471,587 C682.352921,587 686.175543,584.746394 688.086854,581.365986 L817.100347,320.623798 C818.772744,317.243389 818.056003,313.41226 815.42795,310.707933 C813.277725,308.679688 810.410758,307.327524 807.304878,307.327524 C806.349223,307.327524 805.393567,307.552885 804.437912,307.778245 L709.828016,329.863582 L750.682289,225.521635 C751.399031,224.169471 751.876859,222.817308 751.876859,221.465144 C751.876859,216.281851 747.098581,212 741.125734,212 L662.761983,212 C657.744791,212 653.444341,214.929688 652.249772,219.211538 L604.228083,405.134014 C603.511341,408.289063 604.466997,411.669471 607.333963,413.923077 C609.245274,415.500601 612.112241,416.402043 614.740293,416.402043 C615.695949,416.402043 616.651604,416.402043 617.60726,416.176683 L714.606294,393.415264 L667.54026,575.506611 C666.345691,580.239183 669.451571,584.971755 674.707676,586.549279 C675.902246,586.774639 677.096815,587 678.052471,587 Z" id="-copy-4" fill-opacity="0.15" fill="#FFFFFF" mask="url(#mask-2)" transform="translate(711.000000, 399.500000) rotate(90.000000) translate(-711.000000, -399.500000) "></path>
                <path d="M135.052471,587 C139.352921,587 143.175543,584.746394 145.086854,581.365986 L274.100347,320.623798 C275.772744,317.243389 275.056003,313.41226 272.42795,310.707933 C270.277725,308.679687 267.410758,307.327524 264.304878,307.327524 C263.349223,307.327524 262.393567,307.552885 261.437912,307.778245 L166.828016,329.863582 L207.682289,225.521635 C208.399031,224.169471 208.876859,222.817308 208.876859,221.465144 C208.876859,216.281851 204.098581,212 198.125734,212 L119.761983,212 C114.744791,212 110.444341,214.929687 109.249772,219.211538 L61.2280828,405.134014 C60.5113412,408.289062 61.4669967,411.669471 64.3339632,413.923077 C66.2452742,415.500601 69.1122407,416.402043 71.7402934,416.402043 C72.6959489,416.402043 73.6516044,416.402043 74.6072599,416.176683 L171.606294,393.415264 L124.54026,575.506611 C123.345691,580.239183 126.451571,584.971755 131.707676,586.549279 C132.902246,586.774639 134.096815,587 135.052471,587 Z" id="-copy-7" fill-opacity="0.15" fill="#FFFFFF" mask="url(#mask-2)" transform="translate(168.000000, 399.500000) rotate(90.000000) translate(-168.000000, -399.500000) "></path>
                <path d="M491.052471,880 C495.352921,880 499.175543,877.746394 501.086854,874.365986 L630.100347,613.623798 C631.772744,610.243389 631.056003,606.41226 628.42795,603.707933 C626.277725,601.679687 623.410758,600.327524 620.304878,600.327524 C619.349223,600.327524 618.393567,600.552885 617.437912,600.778245 L522.828016,622.863582 L563.682289,518.521635 C564.399031,517.169471 564.876859,515.817308 564.876859,514.465144 C564.876859,509.281851 560.098581,505 554.125734,505 L475.761983,505 C470.744791,505 466.444341,507.929687 465.249772,512.211538 L417.228083,698.134014 C416.511341,701.289062 417.466997,704.669471 420.333963,706.923077 C422.245274,708.500601 425.112241,709.402043 427.740293,709.402043 C428.695949,709.402043 429.651604,709.402043 430.60726,709.176683 L527.606294,686.415264 L480.54026,868.506611 C479.345691,873.239183 482.451571,877.971755 487.707676,879.549279 C488.902246,879.774639 490.096815,880 491.052471,880 Z" id="-copy-5" fill-opacity="0.15" fill="#FFFFFF" mask="url(#mask-2)" transform="translate(524.000000, 692.500000) rotate(90.000000) translate(-524.000000, -692.500000) "></path>
                <path d="M-52.9475293,880 C-48.6470795,880 -44.8244575,877.746394 -42.9131465,874.365986 L86.100347,613.623798 C87.7727442,610.243389 87.0560025,606.41226 84.4279499,603.707933 C82.277725,601.679687 79.4107585,600.327524 76.3048781,600.327524 C75.3492226,600.327524 74.3935671,600.552885 73.4379116,600.778245 L-21.1719837,622.863582 L19.6822893,518.521635 C20.3990309,517.169471 20.8768587,515.817308 20.8768587,514.465144 C20.8768587,509.281851 16.0985811,505 10.1257342,505 L-68.2380174,505 C-73.2552088,505 -77.5556586,507.929687 -78.750228,512.211538 L-126.771917,698.134014 C-127.488659,701.289062 -126.533003,704.669471 -123.666037,706.923077 C-121.754726,708.500601 -118.887759,709.402043 -116.259707,709.402043 C-115.304051,709.402043 -114.348396,709.402043 -113.39274,709.176683 L-16.3937061,686.415264 L-63.4597399,868.506611 C-64.6543092,873.239183 -61.5484288,877.971755 -56.2923236,879.549279 C-55.0977542,879.774639 -53.9031848,880 -52.9475293,880 Z" id="-copy-8" fill-opacity="0.15" fill="#FFFFFF" mask="url(#mask-2)" transform="translate(-20.000000, 692.500000) rotate(90.000000) translate(20.000000, -692.500000) "></path>
            </g>
        </g>
    </g>
</svg>